<svg width="144" height="200" viewBox="0 0 144 200" fill="none" xmlns="http://www.w3.org/2000/svg">
<path d="M71.9933 151.751C69.6421 151.744 67.301 151.441 65.0251 150.851L64.5751 150.727L64.1588 150.518C49.1148 142.975 36.4225 133.012 26.4353 120.905C18.1679 110.824 11.7221 99.3789 7.38795 87.0832C2.20504 72.3621 -0.28845 56.829 0.0265128 41.2253C0.0327003 40.898 0.0383231 40.6449 0.0383231 40.4705C0.0383231 32.8857 4.24864 26.2302 10.7646 23.515C15.7518 21.4372 61.0302 2.83923 64.3017 1.49541C70.4628 -1.59159 77.0356 0.985226 78.0874 1.43579C80.4466 2.40048 122.304 19.5207 131.349 23.8278C140.672 28.267 143.159 36.2416 143.159 40.2528C143.159 58.417 140.013 75.3933 133.808 90.709C128.797 103.107 121.696 114.552 112.812 124.546C95.6729 143.834 78.5285 150.672 78.3631 150.732C76.3141 151.437 74.1583 151.782 71.9916 151.75L71.9933 151.751ZM67.9613 141.764C69.4475 142.097 72.8697 142.597 75.1 141.784C77.9333 140.751 92.2827 133.31 105.692 118.22C124.219 97.3685 133.618 71.161 133.633 40.3203C133.6 39.6954 133.156 35.2392 127.255 32.429C118.385 28.2052 74.8778 10.415 74.4396 10.2361L74.3193 10.1849C73.4074 9.80298 70.5061 8.99804 68.5058 10.046L68.1053 10.2327C67.6204 10.4319 19.5565 30.1728 14.4304 32.3086C10.8445 33.8026 9.56707 37.5039 9.56707 40.4699C9.56707 40.6865 9.56145 41.002 9.55357 41.4093C9.14351 62.512 14.0266 114.439 67.9613 141.764V141.764Z" fill="#3F3D56"/>
<path d="M66.1792 5.69679C66.1792 5.69679 17.6788 25.6172 12.4818 27.7828C7.28491 29.9484 4.68728 35.1442 4.68728 40.3412C4.68728 45.5381 0.789723 113.345 66.1792 146.13C66.1792 146.13 72.1142 147.772 76.6164 146.13C81.1187 144.488 138.28 116.77 138.28 40.124C138.28 40.124 138.28 32.3295 129.187 27.9988C120.093 23.6681 76.1254 5.69735 76.1254 5.69735C76.1254 5.69735 70.7265 3.31404 66.1792 5.69679Z" fill="#1F51FF"/>
<path opacity="0.1" d="M71.4921 21.4158V127.68C71.4921 127.68 22.5585 104.125 22.9916 42.2001L71.4921 21.4158Z" fill="black"/>
<path d="M65.1841 101.405C63.6693 101.408 62.1948 100.918 60.9828 100.01L60.9074 99.9533L45.0848 87.8393C44.328 87.2868 43.6892 86.5886 43.2061 85.7857C42.723 84.9828 42.4052 84.0915 42.2715 83.164C42.1377 82.2365 42.1907 81.2917 42.4273 80.385C42.6639 79.4784 43.0793 78.6281 43.6492 77.8843C44.2191 77.1404 44.9319 76.518 45.7458 76.0536C46.5596 75.5891 47.4581 75.2921 48.3884 75.1798C49.3187 75.0676 50.262 75.1424 51.163 75.3999C52.064 75.6574 52.9044 76.0924 53.6348 76.6793L63.8836 84.538L88.1026 52.9531C89.2373 51.4741 90.9129 50.5061 92.761 50.2622C94.6091 50.0182 96.4785 50.5181 97.9581 51.652L97.8074 51.8568L97.9621 51.6554C99.4397 52.7911 100.407 54.4665 100.65 56.3142C100.894 58.1618 100.395 60.0307 99.2631 61.511L70.7759 98.6624C70.1171 99.5186 69.2699 100.211 68.3001 100.687C67.3302 101.163 66.2638 101.409 65.1835 101.406L65.1841 101.405Z" fill="white"/>
<path d="M81.1436 184.076H58.6436C54.9156 184.076 51.8936 187.098 51.8936 190.826C51.8936 194.554 54.9156 197.576 58.6436 197.576H81.1436C84.8715 197.576 87.8936 194.554 87.8936 190.826C87.8936 187.098 84.8715 184.076 81.1436 184.076Z" fill="#E6E6E6"/>
<path d="M83.6748 199.263C88.1794 199.263 91.8311 195.612 91.8311 191.107C91.8311 186.602 88.1794 182.951 83.6748 182.951C79.1702 182.951 75.5186 186.602 75.5186 191.107C75.5186 195.612 79.1702 199.263 83.6748 199.263Z" fill="#1F51FF"/>
</svg>
